#!OML:ASF E:\Style4\Style4.ASF
:FULLY-SPECIFIED
:DEGREES
1196
root 1.06428 17.4299 -0.852611 5.54104 -29.6719 3.84036
lowerback 16.7897 2.3971 -1.62528
upperback 9.32329 2.71303 -0.483248
thorax 0.479432 1.23474 -0.024425
lowerneck 8.70491 -3.2436 -4.47242
upperneck -12.0326 -4.29742 5.76354
head -4.80451 -2.30238 2.79925
rclavicle 1.03368e-014 -4.49253e-014
rhumerus -35.428 11.3676 -92.0249
rradius 67.7932
rwrist -7.97929
rhand 1.63275 -1.9434
rfingers 7.12502
rthumb 27.1533 -30.0099
lclavicle 1.03368e-014 -4.49253e-014
lhumerus -35.206 -14.2032 90.2816
lradius 68.7522
lwrist 4.56761
lhand 7.18304 43.055
lfingers 7.12502
lthumb 32.4499 70.1697
rfemur -33.5885 17.344 9.24424
rtibia 41.4914
rfoot -19.0051 1.63511
rtoes -15.4512
lfemur -23.6642 10.2743 -27.9143
ltibia 40.9739
lfoot -28.3858 18.0501
ltoes -7.39147
1197
root 1.04764 17.4305 -0.829908 5.43723 -29.56 3.91835
lowerback 16.6669 2.37575 -1.75019
upperback 9.07343 2.67641 -0.48473
thorax 0.270798 1.21718 0.0490073
lowerneck 8.63309 -3.2073 -4.49098
upperneck -12.0492 -4.23898 5.83196
head -4.79848 -2.27645 2.81876
rclavicle 1.15295e-014 -2.38542e-014
rhumerus -35.5227 11.4564 -92.1123
rradius 67.3259
rwrist -7.99933
rhand 1.6555 -2.03263
rfingers 7.12502
rthumb 27.1751 -30.0958
lclavicle 1.15295e-014 -2.38542e-014
lhumerus -35.3164 -14.1831 90.3334
lradius 68.2919
lwrist 4.52808
lhand 7.33172 43.0487
lfingers 7.12502
lthumb 32.5914 70.1342
rfemur -33.4044 17.3028 9.25091
rtibia 41.5531
rfoot -19.1425 1.47381
rtoes -15.8361
lfemur -23.4202 10.2077 -27.9376
ltibia 40.8482
lfoot -28.383 18.0363
ltoes -7.54632
1198
root 1.03256 17.4323 -0.807778 5.44578 -29.3312 3.86053
lowerback 16.4847 2.26927 -1.72175
upperback 8.85411 2.55211 -0.481388
thorax 0.133569 1.16088 0.0584605
lowerneck 8.40287 -3.14795 -4.40987
upperneck -12.0071 -4.14192 5.82162
head -4.75402 -2.22922 2.79044
rclavicle 6.63941e-014 -3.77691e-014
rhumerus -35.4978 11.6135 -92.2364
rradius 66.7978
rwrist -8.06023
rhand 1.70664 -1.99061
rfingers 7.12502
rthumb 27.224 -30.0461
lclavicle 6.63941e-014 -3.77691e-014
lhumerus -35.3295 -14.073 90.285
lradius 67.8151
lwrist 4.50161
lhand 7.44837 43.0436
lfingers 7.12502
lthumb 32.7024 70.1061
rfemur -33.2189 17.2036 9.37348
rtibia 41.5972
rfoot -19.2886 1.40551
rtoes -15.5226
lfemur -23.2526 10.0533 -27.8308
ltibia 40.7541
lfoot -28.3476 18.0054
ltoes -7.71892
1199
root 1.01957 17.4339 -0.788124 5.51387 -29.1306 3.8325
lowerback 16.2564 2.1916 -1.68046
upperback 8.55147 2.46865 -0.504453
thorax -0.0666544 1.12735 0.0262227
lowerneck 8.38641 -3.11419 -4.27731
upperneck -11.9761 -4.08234 5.78505
head -4.74873 -2.20291 2.75307
rclavicle 1.80894e-014 5.1684e-015
rhumerus -35.6018 11.6731 -92.3566
rradius 66.2691
rwrist -8.11404
rhand 1.78038 -1.75013
rfingers 7.12502
rthumb 27.2945 -29.7945
lclavicle 1.80894e-014 5.1684e-015
lhumerus -35.4603 -14.0429 90.2684
lradius 67.3192
lwrist 4.59498
lhand 7.59627 43.0242
lfingers 7.12502
lthumb 32.8431 70.0574
rfemur -33.1351 17.1118 9.4346
rtibia 41.6333
rfoot -19.4127 1.30708
rtoes -15.5086
lfemur -23.1772 9.85298 -27.7699
ltibia 40.6581
lfoot -28.3111 18.0032
ltoes -7.69663
1200
root 1.00569 17.4355 -0.768676 5.56207 -29.073 3.89635
lowerback 16.0108 2.18764 -1.80982
upperback 8.18857 2.45852 -0.502861
thorax -0.329473 1.12544 0.103092
lowerneck 8.5511 -3.08302 -4.29894
upperneck -11.9548 -4.04142 5.83413
head -4.77053 -2.18612 2.77276
rclavicle 6.55989e-014 -3.73715e-014
rhumerus -35.858 11.7309 -92.4261
rradius 65.8076
rwrist -8.15318
rhand 1.91034 -1.78731
rfingers 7.12502
rthumb 27.4188 -29.8121
lclavicle 6.55989e-014 -3.73715e-014
lhumerus -35.7606 -13.8887 90.3989
lradius 66.9003
lwrist 4.74354
lhand 7.66933 42.9626
lfingers 7.12502
lthumb 32.9126 69.9812
rfemur -33.1297 17.098 9.38298
rtibia 41.6626
rfoot -19.5008 1.21428
rtoes -15.6288
lfemur -23.0983 9.80349 -27.8284
ltibia 40.5252
lfoot -28.3144 18.0223
ltoes -7.65065
1201
root 0.991876 17.4394 -0.747104 5.49806 -29.0431 4.07491
lowerback 15.7689 2.20088 -2.01913
upperback 7.87862 2.45824 -0.537592
thorax -0.538382 1.12644 0.186254
lowerneck 8.69077 -3.05788 -4.3649
upperneck -11.9552 -4.008 5.9292
head -4.79232 -2.17399 2.81425
rclavicle -1.15295e-014 3.1408e-014
rhumerus -36.0706 11.8331 -92.4968
rradius 65.3809
rwrist -8.27136
rhand 2.00312 -1.93155
rfingers 7.12502
rthumb 27.5076 -29.9423
lclavicle -1.15295e-014 3.1408e-014
lhumerus -36.0217 -13.8227 90.5197
lradius 66.5109
lwrist 4.77723
lhand 7.85996 43.0652
lfingers 7.12502
lthumb 33.0939 70.0456
rfemur -33.0394 17.0436 9.24577
rtibia 41.678
rfoot -19.6059 1.16231
rtoes -15.8812
lfemur -22.904 9.78958 -27.9951
ltibia 40.3413
lfoot -28.3278 18.0345
ltoes -7.66507
1202
root 0.977262 17.4446 -0.720629 5.31741 -29.0218 4.27647
lowerback 15.5655 2.22917 -2.16047
upperback 7.63175 2.4841 -0.608698
thorax -0.695902 1.14217 0.189071
lowerneck 8.78164 -3.0506 -4.35978
upperneck -11.961 -3.9947 5.96706
head -4.80937 -2.17079 2.82658
rclavicle 1.49089e-014 -8.74653e-015
rhumerus -36.2351 11.8414 -92.5445
rradius 64.9194
rwrist -8.35213
rhand 2.13318 -2.21872
rfingers 7.12502
rthumb 27.632 -30.2096
lclavicle 1.49089e-014 -8.74653e-015
lhumerus -36.2286 -13.8775 90.6049
lradius 66.1239
lwrist 4.70482
lhand 8.17592 43.3295
lfingers 7.12502
lthumb 33.3943 70.2457
rfemur -32.8062 17.0289 9.11046
rtibia 41.6806
rfoot -19.7172 1.21426
rtoes -15.5784
lfemur -22.561 9.7811 -28.1543
ltibia 40.1291
lfoot -28.3831 18.0126
ltoes -7.68008
